<?xml version="1.0" encoding="UTF-8"?>
<svg xmlns="http://www.w3.org/2000/svg" xmlns:xlink="http://www.w3.org/1999/xlink" width="32px" height="32px" viewBox="0 0 32 32" version="1.1">
<defs>
<linearGradient id="linear0" gradientUnits="userSpaceOnUse" x1="217.517685" y1="859.233093" x2="219.88562" y2="854.452698" gradientTransform="matrix(0.03125,0,0,0.03125,0,0)">
<stop offset="0" style="stop-color:rgb(80.392157%,89.019608%,89.019608%);stop-opacity:1;"/>
<stop offset="1" style="stop-color:rgb(93.72549%,93.72549%,94.117647%);stop-opacity:1;"/>
</linearGradient>
</defs>
<g id="surface1">
<path style=" stroke:none;fill-rule:nonzero;fill:rgb(90.196079%,92.156863%,92.156863%);fill-opacity:1;" d="M 10.039062 2.648438 C 10.046875 2.648438 10.054688 2.648438 10.0625 2.648438 C 11.644531 1.824219 13.398438 1.421875 15.171875 1.324219 C 17.902344 1.179688 20.617188 1.808594 23.003906 3.136719 C 27.035156 5.390625 29.84375 9.5 30.464844 14.078125 C 30.964844 17.929688 29.921875 21.820312 27.558594 24.902344 C 26.859375 25.820312 26.292969 26.386719 25.460938 27.15625 C 23.621094 28.777344 21.390625 29.890625 18.988281 30.386719 C 18.671875 30.449219 18.140625 30.558594 17.828125 30.582031 L 17.6875 30.601562 C 16.535156 30.71875 15.496094 30.75 14.335938 30.621094 C 11.875 30.355469 9.53125 29.449219 7.535156 27.988281 C 6.542969 27.277344 5.652344 26.4375 4.878906 25.492188 C 4.78125 25.40625 4.363281 24.847656 4.277344 24.726562 C 3.15625 23.183594 2.339844 21.441406 1.875 19.589844 C 1.105469 16.558594 1.320312 13.363281 2.484375 10.460938 C 2.824219 9.617188 3.183594 8.929688 3.648438 8.144531 C 2.902344 7.246094 3.207031 5.945312 4.335938 5.558594 C 4.613281 4.6875 5.210938 4.285156 6.113281 4.25 C 6.183594 3.976562 6.300781 3.714844 6.460938 3.484375 C 6.863281 2.890625 7.484375 2.480469 8.1875 2.34375 C 8.761719 2.230469 9.550781 2.324219 10.039062 2.648438 Z M 10.039062 2.648438 "/>
<path style=" stroke:none;fill-rule:nonzero;fill:rgb(90.196079%,92.156863%,92.156863%);fill-opacity:1;" d="M 10.039062 2.648438 C 10.046875 2.648438 10.054688 2.648438 10.0625 2.648438 C 11.644531 1.824219 13.398438 1.421875 15.171875 1.324219 C 17.902344 1.179688 20.617188 1.808594 23.003906 3.136719 C 27.035156 5.390625 29.84375 9.5 30.464844 14.078125 C 30.964844 17.929688 29.921875 21.820312 27.558594 24.902344 C 26.859375 25.820312 26.292969 26.386719 25.460938 27.15625 C 23.621094 28.777344 21.390625 29.890625 18.988281 30.386719 C 18.671875 30.449219 18.140625 30.558594 17.828125 30.582031 C 17.878906 30.359375 17.941406 29.589844 17.957031 29.339844 C 17.964844 29.328125 17.976562 29.320312 17.984375 29.3125 C 18.136719 29.15625 18.113281 28.980469 18.113281 28.773438 C 18.15625 28.78125 18.257812 28.78125 18.308594 28.78125 C 18.292969 28.554688 18.273438 28.347656 18.300781 28.117188 C 18.273438 28.050781 18.285156 27.890625 18.257812 27.78125 L 18.242188 27.808594 C 18.214844 27.691406 18.195312 27.519531 18.179688 27.402344 C 18.816406 27.070312 18.96875 26.816406 18.8125 26.105469 C 19.5 25.769531 19.765625 25.394531 19.703125 24.625 C 20.113281 24.34375 20.429688 23.96875 20.34375 23.441406 C 20.757812 23.320312 21.160156 23.164062 21.5625 23.011719 C 22.554688 22.628906 24.765625 21.636719 25.210938 20.605469 C 25.277344 20.453125 25.300781 20.273438 25.234375 20.117188 C 25.128906 19.867188 24.839844 19.757812 24.605469 19.667969 C 24.894531 19.453125 25.234375 19.257812 25.535156 19.03125 C 26.617188 18.230469 27.875 17.210938 28.460938 15.96875 C 28.6875 15.484375 28.8125 14.855469 28.613281 14.347656 C 28.40625 13.820312 27.867188 13.421875 27.359375 13.210938 C 25.984375 12.628906 24.339844 12.675781 22.890625 12.902344 C 22.609375 12.945312 22.085938 13.03125 21.828125 13.136719 C 21.75 13.046875 21.464844 12.429688 21.367188 12.269531 C 21.015625 11.6875 20.558594 11.027344 20.085938 10.539062 C 20.308594 10.289062 20.585938 10.019531 20.816406 9.773438 C 20.972656 9.605469 21.257812 9.300781 21.421875 9.167969 C 21.496094 9.0625 21.800781 8.761719 21.910156 8.648438 C 22.320312 8.214844 22.734375 7.789062 23.152344 7.367188 C 23.238281 7.277344 23.523438 6.980469 23.613281 6.925781 C 23.558594 6.847656 23.367188 6.660156 23.292969 6.609375 C 23.21875 6.722656 22.929688 7.007812 22.820312 7.121094 L 21.863281 8.105469 C 21.695312 8.277344 21.234375 8.789062 21.085938 8.902344 C 20.980469 9.039062 20.761719 9.253906 20.632812 9.382812 L 19.792969 10.246094 C 19.664062 10.140625 19.554688 10.03125 19.4375 9.914062 C 18.78125 9.253906 18.03125 8.648438 17.234375 8.167969 C 16.695312 7.84375 16.132812 7.566406 15.550781 7.332031 C 15.390625 7.269531 15.035156 7.183594 14.957031 7.082031 C 14.394531 7.28125 13.875 7.21875 13.363281 6.9375 C 13.261719 6.957031 13.179688 6.949219 13.078125 6.941406 C 12.789062 6.929688 12.484375 6.902344 12.195312 6.925781 C 11.730469 6.96875 11.265625 7.046875 10.800781 7.101562 C 10.6875 7.113281 10.460938 7.199219 10.367188 7.199219 C 10.082031 7.710938 9.679688 8.046875 9.113281 8.207031 C 8.867188 8.277344 8.613281 8.308594 8.355469 8.296875 C 8.171875 8.414062 8.0625 8.492188 7.84375 8.539062 C 7.722656 8.550781 7.664062 8.542969 7.542969 8.527344 C 7.273438 8.691406 7.054688 8.773438 6.742188 8.8125 C 6.390625 8.863281 5.859375 8.777344 5.574219 8.554688 C 4.878906 8.851562 4.152344 8.714844 3.648438 8.144531 C 2.902344 7.246094 3.207031 5.945312 4.335938 5.558594 C 4.613281 4.6875 5.210938 4.285156 6.113281 4.25 C 6.183594 3.976562 6.300781 3.714844 6.460938 3.484375 C 6.863281 2.890625 7.484375 2.480469 8.1875 2.34375 C 8.761719 2.230469 9.550781 2.324219 10.039062 2.648438 Z M 10.039062 2.648438 "/>
<path style=" stroke:none;fill-rule:nonzero;fill:rgb(2.745098%,32.549021%,48.235294%);fill-opacity:1;" d="M 10.292969 2.847656 C 10.839844 2.398438 11.375 2.175781 12.097656 2.242188 C 12.726562 2.296875 13.308594 2.601562 13.707031 3.089844 C 13.769531 3.164062 13.832031 3.261719 13.882812 3.34375 C 14.410156 3.175781 14.902344 3.175781 15.402344 3.429688 C 15.804688 3.632812 16.105469 3.988281 16.246094 4.417969 C 16.273438 4.503906 16.292969 4.589844 16.3125 4.679688 C 16.625 4.832031 16.859375 5.070312 16.976562 5.40625 C 17.082031 5.707031 17.0625 6.035156 16.917969 6.320312 C 16.777344 6.605469 16.488281 6.863281 16.183594 6.957031 C 15.855469 7.0625 15.617188 7.023438 15.300781 6.914062 C 15.195312 6.96875 15.0625 7.042969 14.957031 7.082031 C 14.394531 7.28125 13.875 7.21875 13.363281 6.9375 C 13.261719 6.957031 13.179688 6.949219 13.078125 6.941406 C 12.789062 6.929688 12.484375 6.902344 12.195312 6.925781 C 11.730469 6.96875 11.265625 7.046875 10.800781 7.101562 C 10.6875 7.113281 10.460938 7.199219 10.367188 7.199219 C 10.082031 7.710938 9.679688 8.046875 9.113281 8.207031 C 8.867188 8.277344 8.613281 8.308594 8.355469 8.296875 C 8.171875 8.414062 8.0625 8.492188 7.84375 8.539062 C 7.722656 8.550781 7.664062 8.542969 7.542969 8.527344 C 7.273438 8.691406 7.054688 8.773438 6.742188 8.8125 C 6.390625 8.863281 5.859375 8.777344 5.574219 8.554688 C 4.878906 8.851562 4.152344 8.714844 3.648438 8.144531 C 2.902344 7.246094 3.207031 5.945312 4.335938 5.558594 C 4.613281 4.6875 5.210938 4.285156 6.113281 4.25 C 6.183594 3.976562 6.300781 3.714844 6.460938 3.484375 C 6.863281 2.890625 7.484375 2.480469 8.1875 2.34375 C 8.761719 2.230469 9.550781 2.324219 10.039062 2.648438 C 10.121094 2.71875 10.214844 2.777344 10.292969 2.847656 Z M 10.292969 2.847656 "/>
<path style=" stroke:none;fill-rule:nonzero;fill:rgb(90.196079%,92.156863%,92.156863%);fill-opacity:1;" d="M 12.40625 6.460938 C 12.667969 6.578125 12.757812 6.617188 13.046875 6.679688 C 13.15625 6.78125 13.238281 6.851562 13.363281 6.9375 C 13.261719 6.957031 13.179688 6.949219 13.078125 6.941406 C 12.789062 6.929688 12.484375 6.902344 12.195312 6.925781 C 11.730469 6.96875 11.265625 7.046875 10.800781 7.101562 C 10.6875 7.113281 10.460938 7.199219 10.367188 7.199219 C 10.4375 7.058594 10.472656 6.964844 10.515625 6.816406 C 11.25 6.992188 11.773438 6.839844 12.40625 6.460938 Z M 12.40625 6.460938 "/>
<path style=" stroke:none;fill-rule:nonzero;fill:rgb(98.823529%,99.215686%,98.823529%);fill-opacity:1;" d="M 11.734375 2.664062 C 12.605469 2.578125 13.414062 3.121094 13.683594 3.949219 C 14.28125 3.558594 14.960938 3.515625 15.519531 4.023438 C 15.789062 4.273438 15.914062 4.632812 15.925781 4.996094 C 16.292969 5.125 16.59375 5.320312 16.613281 5.757812 C 16.625 5.976562 16.546875 6.191406 16.394531 6.351562 C 16.082031 6.6875 15.636719 6.671875 15.320312 6.347656 C 15.164062 6.503906 14.972656 6.621094 14.765625 6.699219 C 14.335938 6.855469 13.839844 6.761719 13.46875 6.492188 C 13.378906 6.429688 13.242188 6.257812 13.15625 6.214844 C 12.863281 6.320312 12.605469 6.050781 12.4375 5.847656 C 11.734375 6.5625 11.007812 6.617188 10.125 6.210938 C 10.140625 6.785156 9.980469 7.207031 9.5 7.550781 C 9.066406 7.867188 8.625 7.890625 8.121094 7.804688 C 7.921875 8.148438 7.765625 8.144531 7.414062 8.035156 C 6.902344 8.539062 6.15625 8.464844 5.613281 8.050781 L 5.480469 8.132812 C 5.425781 8.15625 5.371094 8.179688 5.3125 8.203125 C 4.984375 8.320312 4.652344 8.304688 4.339844 8.148438 C 4.058594 8.011719 3.84375 7.769531 3.742188 7.472656 C 3.574219 6.957031 3.734375 6.421875 4.171875 6.101562 C 4.335938 5.980469 4.492188 5.9375 4.683594 5.878906 C 4.6875 5.808594 4.699219 5.742188 4.714844 5.675781 C 4.804688 5.328125 5.035156 5.03125 5.347656 4.851562 C 5.683594 4.648438 6.089844 4.589844 6.46875 4.6875 C 6.800781 4.777344 7.113281 5.003906 7.28125 5.304688 C 7.332031 5.398438 7.347656 5.476562 7.402344 5.574219 C 7.464844 5.621094 7.550781 5.605469 7.601562 5.546875 C 7.640625 5.40625 7.542969 5.261719 7.476562 5.140625 C 7.742188 4.585938 8.371094 4.402344 8.757812 4.976562 C 8.820312 5.070312 8.992188 4.929688 8.929688 4.828125 C 8.566406 4.226562 7.621094 4.296875 7.328125 4.925781 L 7.3125 4.910156 C 7.113281 4.65625 6.835938 4.484375 6.515625 4.445312 C 6.542969 4.339844 6.570312 4.230469 6.613281 4.125 C 6.976562 3.191406 8.023438 2.578125 9.015625 2.734375 C 9.578125 2.820312 9.921875 3.058594 10.304688 3.460938 C 10.699219 2.964844 11.113281 2.738281 11.734375 2.664062 Z M 11.734375 2.664062 "/>
<path style=" stroke:none;fill-rule:nonzero;fill:rgb(2.745098%,32.549021%,48.235294%);fill-opacity:1;" d="M 5.988281 6.347656 C 6.300781 6.324219 6.582031 6.453125 6.753906 6.722656 C 6.78125 6.765625 6.773438 6.796875 6.757812 6.839844 C 6.71875 6.878906 6.710938 6.875 6.660156 6.886719 C 6.585938 6.855469 6.46875 6.71875 6.386719 6.664062 C 6.230469 6.566406 6.144531 6.554688 5.96875 6.570312 C 5.6875 6.648438 5.644531 6.753906 5.484375 6.980469 C 5.457031 7.019531 5.421875 7.03125 5.371094 7.03125 C 5.332031 7.03125 5.324219 7.007812 5.304688 6.984375 C 5.285156 6.804688 5.484375 6.582031 5.621094 6.488281 C 5.742188 6.402344 5.847656 6.371094 5.988281 6.347656 Z M 5.988281 6.347656 "/>
<path style=" stroke:none;fill-rule:nonzero;fill:rgb(55.29412%,74.509805%,77.254903%);fill-opacity:1;" d="M 25.695312 24.75 C 25.753906 24.636719 25.878906 24.398438 25.90625 24.28125 C 25.972656 23.972656 25.9375 23.753906 26.210938 23.527344 C 26.5 23.285156 26.636719 23.367188 26.527344 23.71875 C 26.40625 24.097656 26.175781 24.121094 25.925781 24.375 C 25.878906 24.425781 25.777344 24.667969 25.738281 24.75 C 25.925781 24.609375 26.113281 24.539062 26.347656 24.570312 C 26.613281 24.609375 26.539062 24.820312 26.332031 24.894531 C 26.117188 24.972656 25.953125 25.011719 25.734375 24.921875 C 25.714844 24.910156 25.691406 24.902344 25.671875 24.894531 C 25.5625 25.074219 25.460938 25.3125 25.367188 25.507812 C 25.546875 25.339844 25.632812 25.296875 25.886719 25.285156 C 26.160156 25.269531 26.296875 25.492188 26.03125 25.632812 C 25.835938 25.734375 25.550781 25.761719 25.335938 25.6875 C 25.320312 25.679688 25.308594 25.675781 25.292969 25.667969 C 25.210938 25.863281 25.132812 26.0625 25.0625 26.261719 C 25.230469 26.128906 25.457031 26.023438 25.660156 26.066406 C 25.984375 26.132812 25.738281 26.429688 25.550781 26.496094 C 25.304688 26.582031 25.207031 26.609375 24.960938 26.535156 C 24.90625 26.722656 24.875 26.84375 24.847656 27.039062 C 25.109375 26.984375 25.226562 27.027344 25.460938 27.15625 C 23.621094 28.777344 21.390625 29.890625 18.988281 30.386719 C 18.671875 30.449219 18.140625 30.558594 17.828125 30.582031 C 17.878906 30.359375 17.941406 29.589844 17.957031 29.339844 C 17.964844 29.328125 17.976562 29.320312 17.984375 29.3125 C 18.136719 29.15625 18.113281 28.980469 18.113281 28.773438 C 18.15625 28.78125 18.257812 28.78125 18.308594 28.78125 C 18.292969 28.554688 18.273438 28.347656 18.300781 28.117188 C 18.425781 27.492188 19.0625 27 19.707031 27.113281 C 19.847656 27.136719 19.972656 27.195312 20.101562 27.25 C 20.109375 26.921875 20.117188 26.691406 20.324219 26.417969 C 20.578125 26.09375 20.980469 25.898438 21.378906 25.839844 C 22.226562 25.714844 22.828125 26.058594 22.957031 26.941406 C 22.949219 26.996094 22.960938 27 22.941406 27.0625 L 22.988281 27.089844 L 22.976562 27.109375 C 23.03125 27.058594 23.011719 27.039062 23.035156 27.003906 C 23.359375 26.476562 24.078125 26.339844 24.589844 26.675781 C 24.679688 26.738281 24.742188 26.8125 24.8125 26.890625 L 24.921875 26.519531 C 24.722656 26.40625 24.570312 26.300781 24.46875 26.082031 C 24.414062 25.960938 24.382812 25.773438 24.429688 25.648438 C 24.519531 25.570312 24.707031 25.683594 24.78125 25.753906 C 24.941406 25.910156 24.980469 26.09375 24.988281 26.308594 C 25.0625 26.082031 25.148438 25.855469 25.25 25.640625 C 25.003906 25.480469 24.832031 25.292969 24.800781 24.984375 C 24.792969 24.882812 24.789062 24.832031 24.832031 24.742188 C 25.027344 24.601562 25.230469 24.953125 25.285156 25.101562 C 25.328125 25.222656 25.320312 25.304688 25.304688 25.425781 L 25.339844 25.4375 C 25.433594 25.238281 25.519531 25.050781 25.605469 24.851562 C 25.421875 24.65625 25.269531 24.378906 25.289062 24.109375 C 25.308594 23.808594 25.582031 23.941406 25.675781 24.140625 C 25.804688 24.40625 25.757812 24.488281 25.695312 24.75 Z M 25.695312 24.75 "/>
<path style=" stroke:none;fill-rule:nonzero;fill:rgb(77.254903%,89.019608%,89.019608%);fill-opacity:1;" d="M 25.304688 25.425781 L 25.339844 25.4375 C 25.320312 25.488281 25.328125 25.5 25.289062 25.53125 C 25.273438 25.488281 25.289062 25.480469 25.304688 25.425781 Z M 25.304688 25.425781 "/>
<path style=" stroke:none;fill-rule:nonzero;fill:rgb(98.823529%,99.215686%,98.823529%);fill-opacity:1;" d="M 21.789062 26.160156 C 22.078125 26.234375 22.28125 26.28125 22.449219 26.570312 C 22.574219 26.78125 22.570312 27.015625 22.503906 27.246094 C 22.496094 27.261719 22.492188 27.273438 22.488281 27.289062 C 22.476562 26.953125 22.472656 26.683594 22.203125 26.429688 C 22.070312 26.300781 21.863281 26.21875 21.683594 26.1875 Z M 21.789062 26.160156 "/>
<path style=" stroke:none;fill-rule:nonzero;fill:rgb(77.254903%,89.019608%,89.019608%);fill-opacity:1;" d="M 21.683594 26.1875 C 21.636719 26.191406 21.574219 26.191406 21.535156 26.175781 C 21.621094 26.144531 21.695312 26.152344 21.789062 26.160156 Z M 21.683594 26.1875 "/>
<path style=" stroke:none;fill-rule:nonzero;fill:rgb(76.862746%,27.843139%,27.058825%);fill-opacity:1;" d="M 23.246094 4.484375 C 23.265625 4.964844 23.246094 5.472656 23.261719 5.953125 C 23.269531 6.117188 23.25 6.46875 23.292969 6.609375 C 23.21875 6.722656 22.929688 7.007812 22.820312 7.121094 L 21.863281 8.105469 C 21.695312 8.277344 21.234375 8.789062 21.085938 8.902344 C 21.246094 8.097656 21.453125 7.296875 21.597656 6.480469 L 21.621094 6.480469 L 21.640625 6.507812 C 21.664062 6.75 21.71875 7.054688 21.761719 7.292969 C 21.867188 6.820312 22.058594 6.222656 22.140625 5.785156 C 22.175781 6.074219 22.238281 6.316406 22.304688 6.597656 C 22.421875 6.132812 22.585938 5.550781 22.671875 5.089844 C 22.722656 5.320312 22.753906 5.558594 22.808594 5.785156 C 22.910156 5.421875 23.121094 4.863281 23.246094 4.484375 Z M 23.246094 4.484375 "/>
<path style=" stroke:none;fill-rule:nonzero;fill:rgb(76.862746%,27.843139%,27.058825%);fill-opacity:1;" d="M 23.613281 6.925781 C 23.6875 6.9375 24.078125 6.894531 24.183594 6.890625 C 24.589844 6.875 25.023438 6.832031 25.425781 6.824219 C 25.125 6.980469 24.867188 7.109375 24.554688 7.246094 C 24.695312 7.273438 24.757812 7.285156 24.890625 7.335938 C 24.507812 7.53125 24.210938 7.65625 23.828125 7.828125 C 23.972656 7.878906 24.117188 7.929688 24.261719 7.988281 C 24.050781 8.0625 23.496094 8.261719 23.304688 8.355469 C 23.453125 8.421875 23.5625 8.472656 23.695312 8.566406 C 23.027344 8.722656 22.375 8.917969 21.714844 9.09375 C 21.625 9.117188 21.511719 9.152344 21.421875 9.167969 C 21.496094 9.0625 21.800781 8.761719 21.910156 8.648438 C 22.320312 8.214844 22.734375 7.789062 23.152344 7.367188 C 23.238281 7.277344 23.523438 6.980469 23.613281 6.925781 Z M 23.613281 6.925781 "/>
<path style=" stroke:none;fill-rule:nonzero;fill:rgb(55.29412%,74.509805%,77.254903%);fill-opacity:1;" d="M 24.128906 23.9375 C 24.324219 23.628906 24.371094 23.386719 24.429688 23.035156 C 24.46875 22.820312 24.859375 22.355469 25.09375 22.410156 C 25.265625 22.527344 25.085938 22.863281 24.996094 22.996094 C 24.847656 23.207031 24.679688 23.332031 24.433594 23.398438 C 24.328125 23.585938 24.253906 23.796875 24.148438 23.972656 C 24.414062 23.769531 24.859375 23.539062 25.054688 23.949219 C 24.765625 24.273438 24.453125 24.308594 24.097656 24.074219 C 23.914062 24.316406 23.84375 24.464844 23.726562 24.746094 C 23.882812 24.636719 24.289062 24.496094 24.460938 24.558594 C 24.816406 24.691406 24.4375 24.941406 24.277344 24.996094 C 23.980469 25.09375 23.867188 25.089844 23.582031 25.027344 L 23.554688 25.003906 C 22.992188 24.691406 22.886719 24.132812 23.101562 23.554688 C 23.339844 23.953125 23.617188 24.261719 23.675781 24.714844 C 23.710938 24.644531 24 24.101562 24 24.089844 C 23.882812 24.058594 23.878906 24.042969 23.800781 23.957031 C 23.546875 23.675781 23.527344 23.3125 23.640625 22.957031 C 23.664062 22.886719 23.691406 22.816406 23.71875 22.746094 C 23.804688 22.863281 23.867188 22.972656 23.941406 23.089844 C 24.132812 23.398438 24.191406 23.539062 24.136719 23.90625 C 24.132812 23.917969 24.132812 23.925781 24.128906 23.9375 Z M 24.128906 23.9375 "/>
<path style=" stroke:none;fill-rule:nonzero;fill:rgb(55.29412%,74.509805%,77.254903%);fill-opacity:1;" d="M 22.578125 24.648438 C 22.804688 24.9375 23.183594 25.34375 23.285156 25.675781 L 23.296875 25.65625 L 23.34375 25.695312 C 23.539062 25.605469 23.515625 25.496094 23.800781 25.480469 C 24.613281 25.433594 24.25 25.972656 23.757812 26.097656 C 23.554688 26.148438 23.386719 26.128906 23.1875 26.058594 L 23.152344 26.050781 C 23.167969 26 23.171875 26.007812 23.164062 25.960938 C 22.542969 25.855469 22.4375 25.15625 22.578125 24.648438 Z M 22.578125 24.648438 "/>
<path style=" stroke:none;fill-rule:nonzero;fill:rgb(55.686277%,73.725492%,76.47059%);fill-opacity:1;" d="M 23.152344 26.050781 L 23.1875 26.058594 C 23.152344 26.214844 22.972656 26.886719 23.035156 27.003906 C 23.011719 27.039062 23.03125 27.058594 22.976562 27.109375 L 22.988281 27.089844 L 22.941406 27.0625 C 22.960938 27 22.949219 26.996094 22.957031 26.941406 L 22.980469 26.929688 C 23.007812 26.839844 23.019531 26.710938 23.039062 26.613281 C 23.074219 26.425781 23.101562 26.238281 23.152344 26.050781 Z M 23.152344 26.050781 "/>
<path style=" stroke:none;fill-rule:nonzero;fill:rgb(55.686277%,73.725492%,76.47059%);fill-opacity:1;" d="M 23.554688 25.003906 L 23.582031 25.027344 C 23.5 25.234375 23.394531 25.480469 23.34375 25.695312 L 23.296875 25.65625 C 23.378906 25.433594 23.460938 25.222656 23.554688 25.003906 Z M 23.554688 25.003906 "/>
<path style=" stroke:none;fill-rule:nonzero;fill:rgb(73.725492%,57.647061%,59.607846%);fill-opacity:1;" d="M 21.597656 6.480469 C 21.597656 6.433594 21.59375 6.40625 21.613281 6.371094 C 21.632812 6.425781 21.632812 6.453125 21.640625 6.507812 L 21.621094 6.480469 Z M 21.597656 6.480469 "/>
<path style=" stroke:none;fill-rule:nonzero;fill:rgb(98.823529%,99.215686%,98.823529%);fill-opacity:1;" d="M 25.476562 8.386719 C 25.550781 8.390625 25.605469 8.417969 25.621094 8.496094 C 25.59375 8.613281 24.59375 9.558594 24.398438 9.757812 C 24.058594 10.105469 23.710938 10.453125 23.359375 10.796875 C 23.261719 10.894531 23.027344 11.132812 22.917969 11.203125 C 22.773438 11.1875 22.734375 11.066406 22.835938 10.964844 C 23.535156 10.246094 24.265625 9.554688 24.972656 8.84375 C 25.121094 8.691406 25.3125 8.515625 25.476562 8.386719 Z M 25.476562 8.386719 "/>
<path style=" stroke:none;fill-rule:nonzero;fill:rgb(92.54902%,64.313728%,36.078432%);fill-opacity:1;" d="M 27.214844 10.335938 C 27.464844 10.140625 27.988281 9.730469 28.238281 9.574219 C 27.855469 10.070312 27.484375 10.574219 27.125 11.085938 C 27.039062 10.910156 26.953125 10.734375 26.867188 10.558594 C 26.601562 10.824219 26.328125 10.996094 26.054688 11.230469 L 25.996094 11.21875 C 26.332031 10.71875 26.660156 10.21875 26.984375 9.714844 C 27.0625 9.921875 27.140625 10.128906 27.214844 10.335938 Z M 27.214844 10.335938 "/>
<path style=" stroke:none;fill-rule:nonzero;fill:rgb(98.823529%,99.215686%,98.823529%);fill-opacity:1;" d="M 21.460938 5.824219 C 21.542969 5.828125 21.613281 5.863281 21.621094 5.953125 C 21.519531 6.101562 21.054688 6.5 20.886719 6.660156 C 20.222656 7.289062 19.566406 7.957031 18.902344 8.582031 C 18.84375 8.59375 18.828125 8.582031 18.78125 8.546875 C 18.734375 8.460938 18.757812 8.402344 18.820312 8.335938 C 18.921875 8.226562 19.035156 8.125 19.140625 8.019531 L 19.800781 7.371094 C 20.144531 7.027344 20.496094 6.691406 20.851562 6.363281 C 21.035156 6.191406 21.261719 5.96875 21.460938 5.824219 Z M 21.460938 5.824219 "/>
<path style=" stroke:none;fill-rule:nonzero;fill:rgb(98.823529%,99.215686%,98.823529%);fill-opacity:1;" d="M 21.023438 5.101562 C 21.304688 5.121094 21.097656 5.371094 21.007812 5.464844 C 20.65625 5.839844 20.265625 6.171875 19.902344 6.53125 L 19.082031 7.335938 C 18.957031 7.460938 18.714844 7.710938 18.582031 7.800781 C 18.417969 7.773438 18.421875 7.648438 18.523438 7.542969 C 19.105469 6.960938 19.695312 6.394531 20.28125 5.816406 C 20.519531 5.574219 20.769531 5.328125 21.023438 5.101562 Z M 21.023438 5.101562 "/>
<path style=" stroke:none;fill-rule:nonzero;fill:rgb(98.823529%,99.215686%,98.823529%);fill-opacity:1;" d="M 24.847656 7.886719 C 24.921875 7.914062 24.949219 7.972656 24.992188 8.035156 C 24.921875 8.144531 24.714844 8.339844 24.609375 8.445312 L 23.871094 9.175781 L 23.035156 10.019531 C 22.945312 10.109375 22.710938 10.355469 22.621094 10.410156 C 22.546875 10.398438 22.445312 10.324219 22.488281 10.25 C 22.585938 10.097656 22.773438 9.953125 22.90625 9.824219 C 23.371094 9.367188 23.824219 8.898438 24.289062 8.445312 C 24.421875 8.320312 24.71875 7.972656 24.847656 7.886719 Z M 24.847656 7.886719 "/>
<path style=" stroke:none;fill-rule:nonzero;fill:rgb(92.54902%,64.313728%,36.078432%);fill-opacity:1;" d="M 28.703125 19.070312 L 28.707031 19.113281 C 28.441406 19.449219 28.179688 19.789062 27.921875 20.128906 C 27.820312 20.265625 27.683594 20.429688 27.589844 20.566406 C 27.496094 20.386719 27.40625 20.207031 27.320312 20.027344 C 27.003906 20.246094 26.703125 20.488281 26.421875 20.75 L 26.390625 20.726562 C 26.75 20.265625 27.15625 19.820312 27.511719 19.355469 C 27.582031 19.53125 27.671875 19.753906 27.714844 19.933594 C 27.984375 19.730469 28.4375 19.308594 28.703125 19.070312 Z M 28.703125 19.070312 "/>
<path style=" stroke:none;fill-rule:nonzero;fill:rgb(92.54902%,64.313728%,36.078432%);fill-opacity:1;" d="M 18.835938 3.234375 C 18.839844 3.238281 18.84375 3.246094 18.847656 3.25 C 18.613281 3.492188 18.332031 3.847656 18.117188 4.113281 C 18.074219 4.011719 18.0625 3.898438 18.042969 3.789062 C 17.898438 3.859375 17.476562 4.160156 17.390625 4.183594 C 17.664062 3.886719 17.878906 3.597656 18.132812 3.292969 C 18.136719 3.421875 18.148438 3.558594 18.15625 3.6875 C 18.429688 3.539062 18.589844 3.417969 18.835938 3.234375 Z M 18.835938 3.234375 "/>
<path style=" stroke:none;fill-rule:nonzero;fill:rgb(90.980393%,68.235296%,42.745098%);fill-opacity:1;" d="M 25.996094 11.21875 L 26.054688 11.230469 L 25.890625 11.390625 C 25.925781 11.320312 25.953125 11.28125 25.996094 11.21875 Z M 25.996094 11.21875 "/>
<path style=" stroke:none;fill-rule:nonzero;fill:rgb(90.980393%,68.235296%,42.745098%);fill-opacity:1;" d="M 28.703125 19.070312 C 28.742188 19.03125 28.757812 19 28.804688 18.988281 C 28.785156 19.039062 28.75 19.070312 28.707031 19.113281 Z M 28.703125 19.070312 "/>
<path style=" stroke:none;fill-rule:nonzero;fill:rgb(90.980393%,68.235296%,42.745098%);fill-opacity:1;" d="M 26.390625 20.726562 L 26.421875 20.75 C 26.386719 20.785156 26.371094 20.796875 26.332031 20.824219 C 26.328125 20.792969 26.367188 20.757812 26.390625 20.726562 Z M 26.390625 20.726562 "/>
<path style=" stroke:none;fill-rule:nonzero;fill:rgb(98.823529%,99.215686%,98.823529%);fill-opacity:1;" d="M 23.292969 6.609375 C 23.367188 6.660156 23.558594 6.847656 23.613281 6.925781 C 23.523438 6.980469 23.238281 7.277344 23.152344 7.367188 C 22.734375 7.789062 22.320312 8.214844 21.910156 8.648438 C 21.800781 8.761719 21.496094 9.0625 21.421875 9.167969 C 21.257812 9.300781 20.972656 9.605469 20.816406 9.773438 C 20.585938 10.019531 20.308594 10.289062 20.085938 10.539062 C 20.558594 11.027344 21.015625 11.6875 21.367188 12.269531 C 21.464844 12.429688 21.75 13.046875 21.828125 13.136719 C 21.847656 13.179688 21.902344 13.300781 21.910156 13.339844 C 22.007812 13.621094 22.121094 13.882812 22.207031 14.171875 C 22.621094 15.558594 22.640625 16.703125 22.640625 18.121094 C 20.25 19.761719 17.164062 20.824219 14.351562 21.492188 C 11.882812 22.078125 9.167969 22.441406 6.640625 22.023438 C 5.988281 21.90625 4.910156 21.570312 4.546875 20.996094 C 3.71875 19.6875 5.898438 17.953125 6.820312 17.335938 L 6.675781 16.972656 C 6.664062 16.953125 6.65625 16.929688 6.644531 16.90625 C 6.472656 16.507812 6.363281 16.039062 6.261719 15.632812 C 5.726562 13.417969 6.035156 11.023438 7.390625 9.15625 C 7.488281 9.023438 7.808594 8.652344 7.84375 8.539062 C 8.0625 8.492188 8.171875 8.414062 8.355469 8.296875 C 8.613281 8.308594 8.867188 8.277344 9.113281 8.207031 C 9.679688 8.046875 10.082031 7.710938 10.367188 7.199219 C 10.460938 7.199219 10.6875 7.113281 10.800781 7.101562 C 11.265625 7.046875 11.730469 6.96875 12.195312 6.925781 C 12.484375 6.902344 12.789062 6.929688 13.078125 6.941406 C 13.179688 6.949219 13.261719 6.957031 13.363281 6.9375 C 13.875 7.21875 14.394531 7.28125 14.957031 7.082031 C 15.035156 7.183594 15.390625 7.269531 15.550781 7.332031 C 16.132812 7.566406 16.695312 7.84375 17.234375 8.167969 C 18.03125 8.648438 18.78125 9.253906 19.4375 9.914062 C 19.554688 10.03125 19.664062 10.140625 19.792969 10.246094 L 20.632812 9.382812 C 20.761719 9.253906 20.980469 9.039062 21.085938 8.902344 C 21.234375 8.789062 21.695312 8.277344 21.863281 8.105469 L 22.820312 7.121094 C 22.929688 7.007812 23.21875 6.722656 23.292969 6.609375 Z M 23.292969 6.609375 "/>
<path style=" stroke:none;fill-rule:nonzero;fill:rgb(2.745098%,32.549021%,48.235294%);fill-opacity:1;" d="M 23.292969 6.609375 C 23.367188 6.660156 23.558594 6.847656 23.613281 6.925781 C 23.523438 6.980469 23.238281 7.277344 23.152344 7.367188 C 22.734375 7.789062 22.320312 8.214844 21.910156 8.648438 C 21.800781 8.761719 21.496094 9.0625 21.421875 9.167969 C 21.257812 9.300781 20.972656 9.605469 20.816406 9.773438 C 20.585938 10.019531 20.308594 10.289062 20.085938 10.539062 C 18.800781 11.851562 17.546875 13.222656 16.277344 14.550781 C 16.332031 14.699219 16.347656 14.847656 16.195312 14.933594 C 15.898438 15.09375 15.507812 14.636719 15.628906 14.347656 C 15.699219 14.179688 15.859375 14.15625 16.019531 14.210938 L 19.792969 10.246094 L 20.632812 9.382812 C 20.761719 9.253906 20.980469 9.039062 21.085938 8.902344 C 21.234375 8.789062 21.695312 8.277344 21.863281 8.105469 L 22.820312 7.121094 C 22.929688 7.007812 23.21875 6.722656 23.292969 6.609375 Z M 23.292969 6.609375 "/>
<path style=" stroke:none;fill-rule:nonzero;fill:rgb(76.862746%,27.843139%,27.058825%);fill-opacity:1;" d="M 9.058594 9.019531 C 9.171875 8.902344 9.34375 8.765625 9.472656 8.664062 C 10.34375 7.972656 11.5 7.613281 12.609375 7.578125 C 15.074219 7.503906 17.542969 8.761719 19.191406 10.542969 C 19.074219 10.671875 18.914062 10.835938 18.804688 10.96875 C 18.523438 10.625 18.253906 10.417969 17.921875 10.144531 C 15.964844 8.53125 12.539062 7.667969 10.425781 9.449219 C 7.691406 11.75 8.71875 16.09375 10.785156 18.476562 C 11.574219 19.386719 12.410156 20.15625 13.496094 20.6875 C 13.953125 20.914062 14.363281 21.0625 14.832031 21.238281 C 14.535156 21.277344 14.25 21.359375 13.960938 21.429688 C 13.664062 21.503906 13.363281 21.570312 13.0625 21.628906 C 12.734375 21.703125 12.375 21.757812 12.039062 21.8125 C 10.828125 21.035156 9.863281 20.253906 8.976562 19.082031 C 7.011719 16.480469 5.984375 12.210938 8.453125 9.578125 C 8.632812 9.386719 8.851562 9.175781 9.058594 9.019531 Z M 9.058594 9.019531 "/>
<path style=" stroke:none;fill-rule:nonzero;fill:rgb(2.745098%,32.549021%,48.235294%);fill-opacity:1;" d="M 9.058594 9.019531 L 9.050781 9.035156 C 8.960938 9.160156 8.855469 9.277344 8.757812 9.402344 C 8.601562 9.605469 8.460938 9.820312 8.335938 10.042969 C 7.636719 11.300781 7.519531 12.984375 7.734375 14.382812 C 8.113281 16.851562 9.675781 19.3125 11.703125 20.769531 C 11.875 20.890625 12.046875 21.007812 12.222656 21.113281 C 12.347656 21.191406 13.011719 21.574219 13.0625 21.628906 C 12.734375 21.703125 12.375 21.757812 12.039062 21.8125 C 10.828125 21.035156 9.863281 20.253906 8.976562 19.082031 C 7.011719 16.480469 5.984375 12.210938 8.453125 9.578125 C 8.632812 9.386719 8.851562 9.175781 9.058594 9.019531 Z M 9.058594 9.019531 "/>
<path style=" stroke:none;fill-rule:nonzero;fill:rgb(76.862746%,27.843139%,27.058825%);fill-opacity:1;" d="M 13.59375 9.367188 C 13.675781 9.355469 13.863281 9.351562 13.949219 9.355469 C 15.679688 9.390625 17.210938 10.234375 18.398438 11.441406 C 18.230469 11.605469 18.0625 11.792969 17.902344 11.96875 C 17.308594 11.457031 16.960938 11.175781 16.230469 10.839844 C 15.34375 10.429688 14.269531 10.3125 13.339844 10.65625 C 12.613281 10.929688 12.023438 11.480469 11.699219 12.1875 C 11.226562 13.234375 11.320312 14.386719 11.71875 15.4375 C 12.269531 16.882812 13.367188 18.054688 14.773438 18.695312 C 15.675781 19.09375 16.792969 19.21875 17.722656 18.859375 C 18.457031 18.578125 19.046875 18.015625 19.359375 17.296875 C 19.820312 16.25 19.714844 15.058594 19.304688 14.011719 C 19.054688 13.378906 18.863281 13.09375 18.464844 12.558594 C 18.628906 12.378906 18.792969 12.199219 18.957031 12.019531 C 20.480469 13.9375 21.269531 16.851562 19.621094 18.972656 C 19 19.769531 17.988281 20.230469 17 20.335938 C 15.449219 20.5 13.898438 19.851562 12.707031 18.894531 C 10.394531 17.039062 8.929688 13.25 10.960938 10.675781 C 11.59375 9.871094 12.578125 9.457031 13.59375 9.367188 Z M 13.59375 9.367188 "/>
<path style=" stroke:none;fill-rule:nonzero;fill:rgb(76.862746%,27.843139%,27.058825%);fill-opacity:1;" d="M 14.699219 11.367188 C 15.746094 11.269531 16.703125 11.757812 17.464844 12.4375 C 17.261719 12.632812 17.0625 12.851562 16.855469 13.054688 C 16.777344 13.015625 16.671875 12.941406 16.597656 12.894531 C 14.550781 11.644531 13.074219 13.617188 14.222656 15.519531 C 14.792969 16.472656 16.160156 17.21875 17.210938 16.570312 C 17.871094 16.160156 17.988281 15.320312 17.808594 14.625 C 17.714844 14.25 17.53125 13.953125 17.328125 13.636719 C 17.453125 13.523438 17.582031 13.390625 17.699219 13.269531 L 17.933594 13.027344 C 18.390625 13.625 18.722656 14.242188 18.820312 14.976562 C 19.203125 17.890625 16.320312 18.871094 14.238281 17.203125 C 13.304688 16.457031 12.714844 15.519531 12.546875 14.339844 C 12.335938 12.871094 13.175781 11.539062 14.699219 11.367188 Z M 14.699219 11.367188 "/>
<path style=" stroke:none;fill-rule:nonzero;fill:rgb(76.862746%,27.843139%,27.058825%);fill-opacity:1;" d="M 19.800781 11.105469 C 20.199219 11.601562 20.492188 11.992188 20.808594 12.554688 C 21.804688 14.320312 22.285156 16.53125 21.703125 18.519531 C 21.507812 18.65625 21.101562 18.867188 20.882812 18.984375 L 20.6875 19.09375 C 20.765625 18.886719 20.859375 18.683594 20.9375 18.476562 C 21.070312 18.097656 21.167969 17.703125 21.222656 17.300781 C 21.449219 15.65625 20.96875 13.976562 20.128906 12.5625 C 19.914062 12.203125 19.648438 11.863281 19.394531 11.53125 C 19.53125 11.394531 19.667969 11.246094 19.800781 11.105469 Z M 19.800781 11.105469 "/>
<path style=" stroke:none;fill-rule:nonzero;fill:rgb(76.862746%,27.843139%,27.058825%);fill-opacity:1;" d="M 15.527344 13.332031 C 15.847656 13.308594 16.109375 13.378906 16.355469 13.589844 C 16.1875 13.757812 16.078125 13.878906 15.929688 14.058594 C 15.722656 14.027344 15.621094 14.066406 15.507812 14.246094 C 15.175781 14.761719 16.097656 15.460938 16.445312 14.914062 C 16.519531 14.796875 16.480469 14.609375 16.441406 14.480469 C 16.582031 14.347656 16.691406 14.21875 16.84375 14.089844 C 17.011719 14.359375 17.085938 14.527344 17.136719 14.835938 C 17.195312 15.335938 16.890625 15.828125 16.375 15.910156 C 15.605469 16.035156 14.820312 15.3125 14.699219 14.574219 C 14.589844 13.933594 14.859375 13.449219 15.527344 13.332031 Z M 15.527344 13.332031 "/>
<path style=" stroke:none;fill-rule:nonzero;fill:rgb(2.745098%,32.549021%,48.235294%);fill-opacity:1;" d="M 10.605469 21.152344 L 10.613281 21.164062 C 10.625 21.261719 10.5 21.828125 10.472656 21.980469 L 9.894531 22.042969 C 9.875 22.035156 9.886719 22.042969 9.871094 22.011719 C 9.925781 21.777344 10.421875 21.347656 10.605469 21.152344 Z M 10.605469 21.152344 "/>
<path style=" stroke:none;fill-rule:nonzero;fill:rgb(2.745098%,32.549021%,48.235294%);fill-opacity:1;" d="M 21.828125 13.136719 C 22.085938 13.03125 22.609375 12.945312 22.890625 12.902344 C 24.339844 12.675781 25.984375 12.628906 27.359375 13.210938 C 27.867188 13.421875 28.40625 13.820312 28.613281 14.347656 C 28.8125 14.855469 28.6875 15.484375 28.460938 15.96875 C 27.875 17.210938 26.617188 18.230469 25.535156 19.03125 C 25.234375 19.257812 24.894531 19.453125 24.605469 19.667969 C 24.839844 19.757812 25.128906 19.867188 25.234375 20.117188 C 25.300781 20.273438 25.277344 20.453125 25.210938 20.605469 C 24.765625 21.636719 22.554688 22.628906 21.5625 23.011719 C 21.160156 23.164062 20.757812 23.320312 20.34375 23.441406 C 20.429688 23.96875 20.113281 24.34375 19.703125 24.625 C 19.765625 25.394531 19.5 25.769531 18.8125 26.105469 C 18.96875 26.816406 18.816406 27.070312 18.179688 27.402344 C 18.195312 27.519531 18.214844 27.691406 18.242188 27.808594 L 18.257812 27.78125 C 18.285156 27.890625 18.273438 28.050781 18.300781 28.117188 C 18.273438 28.347656 18.292969 28.554688 18.308594 28.78125 C 18.257812 28.78125 18.15625 28.78125 18.113281 28.773438 C 18.113281 28.980469 18.136719 29.15625 17.984375 29.3125 C 17.976562 29.320312 17.964844 29.328125 17.957031 29.339844 C 17.941406 29.589844 17.878906 30.359375 17.828125 30.582031 L 17.6875 30.601562 C 17.585938 30.386719 17.496094 30.121094 17.417969 29.894531 C 17.382812 29.761719 17.34375 29.59375 17.289062 29.472656 L 17.277344 29.445312 C 17.238281 29.351562 17.171875 29.34375 17.109375 29.273438 C 16.980469 29.125 16.949219 28.851562 16.917969 28.660156 C 16.464844 28.519531 16.289062 28.246094 16.171875 27.804688 C 15.386719 27.679688 14.867188 27.417969 14.859375 26.542969 C 14.359375 26.332031 14.234375 26 14.132812 25.496094 C 13.679688 25.316406 13.382812 25.136719 13.136719 24.703125 C 11.671875 24.953125 9.863281 24.960938 8.402344 24.640625 C 7.46875 24.433594 6.488281 23.644531 7.789062 22.980469 C 7.457031 23.648438 8.222656 23.996094 8.738281 24.125 C 10.21875 24.503906 11.761719 24.320312 13.257812 24.164062 C 13.695312 24.117188 14.128906 24.007812 14.570312 24.007812 C 14.726562 24.003906 14.898438 23.992188 15.058594 23.980469 C 15.769531 23.929688 16.476562 23.828125 17.171875 23.671875 C 17.953125 23.5 18.40625 23.4375 19.085938 22.988281 C 19.707031 22.578125 20.035156 22.292969 20.527344 21.730469 C 20.363281 21.792969 19.605469 22.027344 19.523438 22.089844 C 18.910156 22.570312 18.3125 22.859375 17.546875 23.054688 C 16.066406 23.433594 14.496094 23.484375 12.96875 23.5 C 13.101562 23.929688 13.277344 23.90625 13.683594 23.949219 C 13.398438 23.996094 13.046875 24.023438 12.753906 24.050781 C 12.644531 23.863281 12.550781 23.679688 12.453125 23.484375 C 12.167969 23.476562 10.308594 23.21875 10.261719 22.980469 C 10.375 22.828125 11.039062 22.765625 11.230469 22.75 C 11.417969 22.746094 11.625 22.785156 11.808594 22.816406 C 13 23.019531 14.242188 22.921875 15.433594 22.746094 C 16.757812 22.550781 18.074219 22.082031 19.332031 21.628906 C 20.347656 21.261719 21.332031 20.835938 22.277344 20.3125 C 22.511719 20.183594 22.773438 20.074219 23.003906 19.9375 C 24.605469 19 26.257812 17.96875 27.398438 16.480469 C 28.011719 15.675781 28.207031 14.546875 27.261719 13.929688 C 25.847656 13.007812 23.5 13.070312 21.910156 13.339844 C 21.902344 13.300781 21.847656 13.179688 21.828125 13.136719 Z M 21.828125 13.136719 "/>
<path style=" stroke:none;fill-rule:nonzero;fill:rgb(98.823529%,99.215686%,98.823529%);fill-opacity:1;" d="M 18.242188 27.808594 L 18.257812 27.78125 C 18.285156 27.890625 18.273438 28.050781 18.300781 28.117188 C 18.273438 28.347656 18.292969 28.554688 18.308594 28.78125 C 18.257812 28.78125 18.15625 28.78125 18.113281 28.773438 C 18.109375 28.675781 18.125 28.46875 18.125 28.355469 C 18.296875 28.199219 18.257812 28.019531 18.242188 27.808594 Z M 18.242188 27.808594 "/>
<path style=" stroke:none;fill-rule:nonzero;fill:rgb(90.196079%,92.156863%,92.156863%);fill-opacity:1;" d="M 24.082031 20 C 24.164062 20.007812 24.25 20.042969 24.328125 20.074219 C 24.429688 20.117188 24.628906 20.195312 24.664062 20.3125 C 24.679688 20.367188 24.671875 20.414062 24.648438 20.46875 C 24.386719 21.042969 22.507812 21.972656 21.910156 22.234375 C 21.519531 22.40625 21.109375 22.550781 20.710938 22.703125 C 20.535156 22.773438 20.378906 22.820312 20.203125 22.871094 C 20.316406 22.757812 20.429688 22.636719 20.542969 22.523438 C 20.863281 22.207031 21.074219 21.820312 21.304688 21.441406 C 21.628906 21.285156 21.984375 21.148438 22.304688 20.984375 C 22.902344 20.679688 23.511719 20.34375 24.082031 20 Z M 24.082031 20 "/>
<path style=" stroke:none;fill-rule:nonzero;fill:rgb(98.823529%,99.215686%,98.823529%);fill-opacity:1;" d="M 19.8125 23.613281 L 19.824219 23.628906 C 19.835938 24.007812 19.191406 24.355469 18.898438 24.476562 C 17.515625 25.050781 15.496094 25.421875 14.054688 24.886719 C 13.894531 24.808594 13.832031 24.765625 13.707031 24.640625 C 14.015625 24.574219 14.523438 24.558594 14.847656 24.542969 C 15.21875 24.527344 15.585938 24.496094 15.957031 24.453125 C 17.242188 24.304688 18.570312 23.96875 19.8125 23.613281 Z M 19.8125 23.613281 "/>
<path style=" stroke:none;fill-rule:nonzero;fill:rgb(98.823529%,99.215686%,98.823529%);fill-opacity:1;" d="M 19.1875 24.890625 L 19.203125 24.894531 C 19.207031 24.902344 19.210938 24.910156 19.214844 24.921875 C 19.289062 25.503906 18.167969 25.945312 17.851562 26.039062 C 16.953125 26.304688 15.75 26.417969 14.925781 25.984375 C 14.8125 25.910156 14.667969 25.746094 14.671875 25.597656 C 14.6875 25.570312 14.683594 25.554688 14.710938 25.558594 C 14.863281 25.570312 15.042969 25.59375 15.195312 25.605469 C 15.453125 25.625 15.714844 25.628906 15.972656 25.621094 C 17.109375 25.566406 18.152344 25.347656 19.1875 24.890625 Z M 19.1875 24.890625 "/>
<path style=" stroke:none;fill-rule:nonzero;fill:rgb(98.823529%,99.215686%,98.823529%);fill-opacity:1;" d="M 18.496094 26.234375 C 18.515625 26.257812 18.515625 26.269531 18.519531 26.296875 C 18.59375 26.859375 17.917969 27.171875 17.476562 27.308594 C 16.925781 27.476562 16.136719 27.519531 15.652344 27.15625 C 15.546875 27.0625 15.386719 26.820312 15.429688 26.675781 C 15.4375 26.667969 15.445312 26.660156 15.457031 26.652344 C 15.625 26.675781 15.945312 26.710938 16.105469 26.714844 C 16.90625 26.746094 17.765625 26.558594 18.496094 26.234375 Z M 18.496094 26.234375 "/>
<path style=" stroke:none;fill-rule:nonzero;fill:rgb(98.823529%,99.215686%,98.823529%);fill-opacity:1;" d="M 17.953125 27.5 C 18.003906 27.539062 18.011719 27.800781 18.003906 27.863281 C 17.929688 28.398438 17.132812 28.5 16.761719 28.238281 C 16.636719 28.085938 16.59375 27.976562 16.558594 27.789062 C 17.195312 27.753906 17.347656 27.699219 17.953125 27.5 Z M 17.953125 27.5 "/>
<path style=" stroke:none;fill-rule:nonzero;fill:rgb(98.823529%,99.215686%,98.823529%);fill-opacity:1;" d="M 17.890625 28.503906 C 17.910156 28.546875 17.847656 28.980469 17.839844 29.0625 C 17.71875 29.125 17.644531 29.144531 17.515625 29.175781 C 17.425781 29.148438 17.390625 29.148438 17.316406 29.09375 C 17.265625 28.960938 17.230469 28.820312 17.191406 28.683594 C 17.476562 28.652344 17.621094 28.609375 17.890625 28.503906 Z M 17.890625 28.503906 "/>
<path style=" stroke:none;fill-rule:nonzero;fill:rgb(98.823529%,99.215686%,98.823529%);fill-opacity:1;" d="M 17.742188 29.414062 C 17.753906 29.410156 17.761719 29.414062 17.769531 29.417969 C 17.773438 29.550781 17.730469 29.9375 17.691406 30.054688 L 17.671875 30.058594 L 17.652344 30.011719 C 17.589844 29.824219 17.53125 29.632812 17.476562 29.441406 C 17.566406 29.4375 17.652344 29.425781 17.742188 29.414062 Z M 17.742188 29.414062 "/>
<path style=" stroke:none;fill-rule:nonzero;fill:rgb(55.29412%,74.509805%,77.254903%);fill-opacity:1;" d="M 6.121094 24.988281 C 6.070312 24.882812 5.9375 24.539062 5.898438 24.476562 C 5.875 24.488281 5.859375 24.496094 5.832031 24.5 C 5.628906 24.410156 5.507812 24.257812 5.425781 24.0625 C 5.367188 23.945312 5.320312 23.632812 5.480469 23.570312 C 5.667969 23.496094 5.9375 23.878906 5.945312 24.035156 C 5.964844 24.402344 5.996094 24.59375 6.167969 24.929688 C 6.171875 24.742188 6.203125 24.460938 6.339844 24.328125 C 6.523438 24.152344 6.675781 24.378906 6.640625 24.570312 C 6.589844 24.835938 6.484375 24.988281 6.253906 25.113281 C 6.347656 25.3125 6.453125 25.566406 6.546875 25.757812 C 6.539062 25.445312 6.546875 25.292969 6.75 25.046875 C 6.914062 24.847656 7.105469 24.976562 7.085938 25.179688 C 7.058594 25.464844 6.863281 25.742188 6.613281 25.871094 C 6.703125 26.042969 6.796875 26.242188 6.867188 26.421875 C 6.894531 26.199219 6.921875 25.988281 7.070312 25.800781 C 7.199219 25.632812 7.445312 25.621094 7.398438 25.894531 C 7.355469 26.144531 7.222656 26.476562 7.03125 26.648438 L 7.160156 26.886719 C 7.214844 26.53125 7.355469 26.195312 7.65625 25.972656 C 7.910156 25.785156 8.230469 25.710938 8.542969 25.761719 C 8.984375 25.832031 9.441406 26.128906 9.507812 26.601562 C 10.304688 25.996094 11.464844 26.355469 11.683594 27.378906 C 11.808594 27.367188 11.988281 27.324219 12.042969 27.46875 C 12.03125 27.605469 11.792969 27.847656 11.691406 27.96875 C 11.945312 27.855469 12.144531 27.8125 12.417969 27.914062 C 12.671875 28.007812 12.894531 28.230469 13.003906 28.476562 C 13.140625 28.785156 13.101562 29.042969 13.0625 29.367188 C 13.316406 28.976562 13.660156 28.703125 14.121094 28.609375 C 14.746094 28.480469 15.558594 28.660156 15.804688 29.3125 C 16.15625 29.132812 16.492188 29.304688 16.75 29.554688 C 16.351562 29.484375 16.113281 29.453125 15.832031 29.796875 C 16.398438 29.648438 16.675781 29.695312 17.113281 30.070312 C 17.164062 30.042969 17.386719 29.921875 17.417969 29.894531 C 17.496094 30.121094 17.585938 30.386719 17.6875 30.601562 C 16.535156 30.71875 15.496094 30.75 14.335938 30.621094 C 11.875 30.355469 9.53125 29.449219 7.535156 27.988281 C 6.542969 27.277344 5.652344 26.4375 4.878906 25.492188 C 5.214844 25.550781 5.394531 25.671875 5.601562 25.945312 C 5.679688 26.054688 5.765625 26.214844 5.851562 26.304688 C 6.265625 26.210938 6.496094 26.320312 6.855469 26.527344 C 6.761719 26.34375 6.679688 26.15625 6.589844 25.972656 C 6.34375 26.082031 6.21875 26.089844 5.941406 26.011719 C 5.773438 25.96875 5.433594 25.648438 5.71875 25.535156 C 5.953125 25.4375 6.304688 25.613281 6.492188 25.785156 C 6.390625 25.578125 6.289062 25.371094 6.191406 25.164062 C 6.003906 25.253906 5.964844 25.246094 5.738281 25.207031 C 5.574219 25.175781 5.21875 24.84375 5.472656 24.71875 C 5.675781 24.617188 5.964844 24.832031 6.121094 24.988281 Z M 6.121094 24.988281 "/>
<path style=" stroke:none;fill-rule:nonzero;fill:url(#linear0);" d="M 6.929688 26.707031 C 6.96875 26.699219 7.058594 26.855469 7.085938 26.894531 C 7.003906 26.859375 6.941406 26.832031 6.855469 26.804688 C 6.761719 26.785156 6.617188 26.78125 6.515625 26.777344 C 6.660156 26.757812 6.789062 26.746094 6.929688 26.707031 Z M 6.929688 26.707031 "/>
<path style=" stroke:none;fill-rule:nonzero;fill:rgb(2.745098%,32.549021%,48.235294%);fill-opacity:1;" d="M 22.640625 18.121094 C 23.378906 17.601562 25.382812 16.195312 24.75 15.027344 C 24.433594 14.449219 23.398438 14.234375 22.8125 14.183594 C 22.777344 14.179688 22.738281 14.148438 22.722656 14.117188 C 22.792969 13.910156 23.886719 14.066406 24.058594 14.089844 C 24.855469 14.207031 25.75 14.820312 25.515625 15.746094 C 25.21875 16.90625 23.796875 18.003906 22.839844 18.628906 C 22.074219 19.121094 21.273438 19.566406 20.445312 19.953125 C 20.019531 20.148438 19.503906 20.339844 19.066406 20.511719 C 17.34375 21.191406 15.570312 21.738281 13.761719 22.144531 C 12.941406 22.332031 12.125 22.507812 11.28125 22.609375 C 9.453125 22.8125 7.558594 22.902344 5.757812 22.523438 C 3.324219 22.015625 2.453125 20.585938 4.402344 18.679688 C 5.171875 17.925781 5.769531 17.542969 6.675781 16.972656 L 6.820312 17.335938 C 5.898438 17.953125 3.71875 19.6875 4.546875 20.996094 C 4.910156 21.570312 5.988281 21.90625 6.640625 22.023438 C 9.167969 22.441406 11.882812 22.078125 14.351562 21.492188 C 17.164062 20.824219 20.25 19.761719 22.640625 18.121094 Z M 22.640625 18.121094 "/>
<path style=" stroke:none;fill-rule:nonzero;fill:rgb(76.862746%,27.843139%,27.058825%);fill-opacity:1;" d="M 14.359375 22.171875 C 14.71875 22.09375 15.066406 21.992188 15.417969 21.894531 C 15.515625 21.871094 15.882812 21.746094 15.957031 21.746094 C 16.808594 21.722656 17.71875 21.632812 18.503906 21.28125 C 18.835938 21.132812 19.457031 20.789062 19.703125 20.539062 C 20.160156 20.082031 20.152344 20.105469 20.757812 19.898438 C 20.9375 19.835938 21.113281 19.761719 21.285156 19.683594 C 21.105469 20.027344 20.601562 20.78125 20.320312 21.0625 C 20.261719 21.117188 19.78125 21.289062 19.671875 21.328125 C 18.855469 21.628906 18.035156 21.914062 17.207031 22.171875 C 16.886719 22.273438 15.878906 22.542969 15.546875 22.558594 C 15.378906 22.597656 15.121094 22.625 14.945312 22.644531 C 14.214844 22.734375 13.886719 22.695312 13.199219 22.433594 C 13.5625 22.363281 13.992188 22.253906 14.359375 22.171875 Z M 14.359375 22.171875 "/>
<path style=" stroke:none;fill-rule:nonzero;fill:rgb(2.745098%,32.549021%,48.235294%);fill-opacity:1;" d="M 13.199219 22.433594 C 13.5625 22.363281 13.992188 22.253906 14.359375 22.171875 C 14.542969 22.277344 14.921875 22.382812 15.132812 22.441406 C 15.234375 22.46875 15.472656 22.511719 15.546875 22.558594 C 15.378906 22.597656 15.121094 22.625 14.945312 22.644531 C 14.214844 22.734375 13.886719 22.695312 13.199219 22.433594 Z M 13.199219 22.433594 "/>
<path style=" stroke:none;fill-rule:nonzero;fill:rgb(92.54902%,64.313728%,36.078432%);fill-opacity:1;" d="M 3.136719 12.257812 C 3.203125 12.292969 3.335938 12.394531 3.398438 12.4375 C 3.664062 12.628906 3.945312 12.90625 4.222656 13.078125 C 4.273438 12.898438 4.320312 12.734375 4.386719 12.558594 C 4.476562 12.65625 4.597656 12.84375 4.683594 12.957031 C 4.902344 13.242188 5.125 13.527344 5.332031 13.820312 L 5.347656 13.847656 L 5.34375 13.859375 C 5.25 13.820312 5.132812 13.722656 5.042969 13.664062 C 4.867188 13.546875 4.6875 13.429688 4.515625 13.300781 L 4.296875 13.707031 C 3.96875 13.265625 3.492188 12.679688 3.136719 12.257812 Z M 3.136719 12.257812 "/>
<path style=" stroke:none;fill-rule:nonzero;fill:rgb(92.54902%,64.313728%,36.078432%);fill-opacity:1;" d="M 2.546875 15.882812 C 2.738281 16.011719 3.03125 16.300781 3.269531 16.46875 C 3.316406 16.292969 3.371094 16.175781 3.40625 15.980469 C 3.679688 16.371094 3.964844 16.753906 4.261719 17.132812 C 4.269531 17.144531 4.265625 17.136719 4.269531 17.15625 C 4.042969 17.023438 3.769531 16.8125 3.558594 16.648438 C 3.507812 16.800781 3.46875 16.902344 3.402344 17.050781 C 3.136719 16.679688 2.789062 16.25 2.546875 15.882812 Z M 2.546875 15.882812 "/>
<path style=" stroke:none;fill-rule:nonzero;fill:rgb(92.54902%,64.313728%,36.078432%);fill-opacity:1;" d="M 4.378906 9.882812 C 4.636719 10.238281 4.902344 10.539062 5.148438 10.867188 C 4.925781 10.746094 4.734375 10.601562 4.519531 10.472656 C 4.46875 10.570312 4.421875 10.667969 4.367188 10.761719 C 4.167969 10.46875 3.992188 10.230469 3.773438 9.945312 L 3.792969 9.90625 C 3.96875 10.066406 4.109375 10.179688 4.308594 10.320312 C 4.316406 10.171875 4.339844 10.027344 4.378906 9.882812 Z M 4.378906 9.882812 "/>
<path style=" stroke:none;fill-rule:nonzero;fill:rgb(90.980393%,68.235296%,42.745098%);fill-opacity:1;" d="M 23.160156 18.765625 L 23.175781 18.769531 L 23.171875 18.785156 C 23.082031 18.886719 22.972656 18.976562 22.871094 19.066406 L 23.230469 19.597656 C 23.023438 19.550781 22.785156 19.472656 22.566406 19.421875 C 22.507812 19.503906 22.445312 19.589844 22.382812 19.671875 C 22.390625 19.511719 22.394531 19.457031 22.425781 19.300781 L 22.25 19.207031 C 22.4375 19.074219 22.941406 18.847656 23.160156 18.765625 Z M 23.160156 18.765625 "/>
<path style=" stroke:none;fill-rule:nonzero;fill:rgb(2.745098%,32.549021%,48.235294%);fill-opacity:1;" d="M 21.726562 19.433594 C 21.773438 19.648438 21.476562 20.398438 21.378906 20.636719 C 21.253906 20.683594 21.101562 20.753906 20.976562 20.808594 C 20.972656 20.777344 21.171875 20.46875 21.203125 20.414062 C 21.292969 20.257812 21.378906 20.097656 21.464844 19.9375 C 21.53125 19.8125 21.652344 19.507812 21.726562 19.433594 Z M 21.726562 19.433594 "/>
<path style=" stroke:none;fill-rule:nonzero;fill:rgb(90.980393%,68.235296%,42.745098%);fill-opacity:1;" d="M 3.773438 9.945312 C 3.742188 9.902344 3.738281 9.898438 3.714844 9.851562 L 3.730469 9.847656 L 3.792969 9.90625 Z M 3.773438 9.945312 "/>
</g>
</svg>
